<svg width="965.1361572265624px" height="120.81007995605468px" xmlns="http://www.w3.org/2000/svg" viewBox="-232.56807861328122 14.59496002197266 965.1361572265624 120.81007995605468" style="background: rgba(242, 237, 219, 0);" preserveAspectRatio="xMidYMid"><defs><filter id="editing-vintage" x="-100%" y="-100%" width="300%" height="300%"><feConvolveMatrix in="SourceGraphic" result="extrude" order="9,9" divisor="1" kernelMatrix="1,0,0,0,0,0,0,0,0,0,1,0,0,0,0,0,0,0,0,0,1,0,0,0,0,0,0,0,0,0,1,0,0,0,0,0,0,0,0,0,1,0,0,0,0,0,0,0,0,0,1,0,0,0,0,0,0,0,0,0,1,0,0,0,0,0,0,0,0,0,1,0,0,0,0,0,0,0,0,0,1"> </feConvolveMatrix><feFlood flood-color="#900" result="flood-extrude"></feFlood><feComposite operator="in" in="flood-extrude" in2="extrude" result="extrude-color"></feComposite><feOffset dx="5" dy="5" in="extrude-color" result="extrude-offset"></feOffset><feColorMatrix in="SourceGraphic" result="stroke" type="matrix" values="0 0 0 0 0 0 0 0 0 0 0 0 0 0 0 0 1 0 0 0 "></feColorMatrix><feColorMatrix in="SourceGraphic" result="fill" type="matrix" values="0 0 0 0 0 0 0 0 0 0 0 0 0 0 0 1 0 0 1 0 "></feColorMatrix><feConvolveMatrix in="stroke" result="inner-shadow" order="5,5" divisor="1" kernelMatrix="1 0 0 0 0 0 1 0 0 0 0 0 1 0 0 0 0 0 1 0 0 0 0 0 1 "></feConvolveMatrix><feOffset dx="1" dy="1" in="inner-shadow" result="offset"></feOffset><feComposite operator="in" in="offset" in2="SourceAlpha" result="comp"></feComposite><feFlood flood-color="#000" result="flood3"></feFlood><feComposite operator="in" in="flood3" in2="comp" result="comp2"></feComposite><feColorMatrix in="comp2" result="comp3" type="matrix" values="1 0 0 0 0 0 1 0 0 0 0 0 1 0 0 0 0 0 0.5 0 "></feColorMatrix><feFlood flood-color="#f00" result="flood1"></feFlood><feComposite operator="in" in="flood1" in2="fill" result="fill2"></feComposite><feFlood flood-color="#fff" result="flood2"></feFlood><feComposite operator="in" in="flood2" in2="stroke" result="stroke2"></feComposite><feMerge result="obj"><feMergeNode in="extrude-offset"></feMergeNode><feMergeNode in="fill2"></feMergeNode><feMergeNode in="comp3"></feMergeNode></feMerge><feConvolveMatrix in="SourceAlpha" result="shadow" order="9,9" divisor="1" kernelMatrix="1,0,0,0,0,0,0,0,0,0,1,0,0,0,0,0,0,0,0,0,1,0,0,0,0,0,0,0,0,0,1,0,0,0,0,0,0,0,0,0,1,0,0,0,0,0,0,0,0,0,1,0,0,0,0,0,0,0,0,0,1,0,0,0,0,0,0,0,0,0,1,0,0,0,0,0,0,0,0,0,1"></feConvolveMatrix><feOffset dx="15" dy="15" in="shadow" result="shadow-offset"></feOffset><feFlood flood-color="#444444" result="flood-shadow"></feFlood><feComposite operator="in" in="flood-shadow" in2="shadow-offset" result="shadow-color"></feComposite><feMerge><feMergeNode in="shadow-color"></feMergeNode><feMergeNode in="obj"></feMergeNode></feMerge></filter></defs><g transform="translate(-9,-9)"><g filter="url(#editing-vintage)"><g transform="translate(-97.006556391716, 99)"><path d="M26.05-29.57L26.05-29.57L26.05-29.57Q27.01-31.49 27.01-33.28L27.01-33.28L27.01-33.28Q27.01-35.07 26.82-36.06L26.82-36.06L26.82-36.06Q26.62-37.06 26.18-37.82L26.18-37.82L26.18-37.82Q25.22-39.49 23.30-39.49L23.30-39.49L23.30-39.49Q20.93-39.49 19.01-37.76L19.01-37.76L19.01-37.76Q16.96-35.97 16.96-33.15L16.96-33.15L16.96-33.15Q16.96-31.36 18.21-29.98L18.21-29.98L18.21-29.98Q19.46-28.61 21.38-27.33L21.38-27.33L21.38-27.33Q23.30-26.05 25.47-24.77L25.47-24.77L25.47-24.77Q27.65-23.49 29.57-21.95L29.57-21.95L29.57-21.95Q33.98-18.43 33.98-13.70L33.98-13.70L33.98-13.70Q33.98-10.50 32.29-7.78L32.29-7.78L32.29-7.78Q30.59-5.06 27.78-3.07L27.78-3.07L27.78-3.07Q21.63 1.28 13.50 1.28L13.50 1.28L13.50 1.28Q6.91 1.28 3.52-0.86L3.52-0.86L3.52-0.86Q0.13-3.01 0.13-6.27L0.13-6.27L0.13-6.27Q0.13-12.10 4.67-13.57L4.67-13.57L4.67-13.57Q5.95-14.02 7.90-14.02L7.90-14.02L7.90-14.02Q9.86-14.02 12.10-13.18L12.10-13.18L12.10-13.18Q11.07-10.56 11.07-8.19L11.07-8.19L11.07-8.19Q11.07-3.07 14.72-3.07L14.72-3.07L14.72-3.07Q17.09-3.07 19.04-4.80L19.04-4.80L19.04-4.80Q20.99-6.53 20.99-8.48L20.99-8.48L20.99-8.48Q20.99-10.43 19.74-11.84L19.74-11.84L19.74-11.84Q18.50-13.25 16.64-14.37L16.64-14.37L16.64-14.37Q14.78-15.49 12.64-16.58L12.64-16.58L12.64-16.58Q10.50-17.66 8.64-19.20L8.64-19.20L8.64-19.20Q4.29-22.72 4.29-28.35L4.29-28.35L4.29-28.35Q4.29-32 6.08-34.85L6.08-34.85L6.08-34.85Q7.87-37.70 10.75-39.62L10.75-39.62L10.75-39.62Q16.51-43.52 23.58-43.52L23.58-43.52L23.58-43.52Q30.66-43.52 34.08-41.41L34.08-41.41L34.08-41.41Q37.50-39.30 37.50-35.71L37.50-35.71L37.50-35.71Q37.50-32.58 35.07-30.59L35.07-30.59L35.07-30.59Q32.96-28.93 30.40-28.93L30.40-28.93L30.40-28.93Q27.84-28.93 26.05-29.57ZM70.27-26.62L70.27-26.62L70.27-26.62Q70.27-23.94 68.03-22.27L68.03-22.27L68.03-22.27Q65.79-20.61 62.14-20.61L62.14-20.61L62.14-20.61Q60.61-20.61 59.71-21.06L59.71-21.06L59.71-21.06Q60.42-22.72 60.64-24.80L60.64-24.80L60.64-24.80Q60.86-26.88 60.86-27.46L60.86-27.46L60.86-27.46Q60.86-30.14 59.01-30.14L59.01-30.14L59.01-30.14Q57.73-30.14 56.29-28.54L56.29-28.54L56.29-28.54Q54.85-26.94 53.63-24.45L53.63-24.45L53.63-24.45Q50.94-18.69 50.94-12.86L50.94-12.86L50.94-12.86Q50.94-9.66 52.16-8.22L52.16-8.22L52.16-8.22Q53.38-6.78 56.06-6.78L56.06-6.78L56.06-6.78Q59.78-6.78 62.72-9.86L62.72-9.86L62.72-9.86Q63.55-10.82 64-11.90L64-11.90L64-11.90Q66.43-10.62 66.43-7.10L66.43-7.10L66.43-7.10Q66.43-3.52 62.46-1.15L62.46-1.15L62.46-1.15Q58.37 1.28 51.84 1.28L51.84 1.28L51.84 1.28Q38.85 1.28 38.85-12.48L38.85-12.48L38.85-12.48Q38.85-22.53 44.54-28.29L44.54-28.29L44.54-28.29Q50.05-33.92 60.16-33.92L60.16-33.92L60.16-33.92Q70.27-33.92 70.27-26.62ZM85.95 1.28L85.95 1.28L85.95 1.28Q71.87 1.28 71.87-11.97L71.87-11.97L71.87-11.97Q71.87-21.38 77.06-27.46L77.06-27.46L77.06-27.46Q82.56-33.92 92.10-33.92L92.10-33.92L92.10-33.92Q99.01-33.92 102.53-30.72L102.53-30.72L102.53-30.72Q106.05-27.52 106.05-20.80L106.05-20.80L106.05-20.80Q106.05-10.56 100.54-4.61L100.54-4.61L100.54-4.61Q95.17 1.28 85.95 1.28ZM87.62-26.56L87.62-26.56L87.62-26.56Q86.85-24.83 86.24-22.24L86.24-22.24L86.24-22.24Q85.63-19.65 84.86-15.55L84.86-15.55L84.86-15.55Q84.10-11.46 84.10-6.40L84.10-6.40L84.10-6.40Q84.10-4.74 84.64-3.65L84.64-3.65L84.64-3.65Q85.18-2.56 86.66-2.56L86.66-2.56L86.66-2.56Q88.13-2.56 89.06-3.26L89.06-3.26L89.06-3.26Q89.98-3.97 90.69-5.63L90.69-5.63L90.69-5.63Q91.97-8.58 92.99-14.05L92.99-14.05L92.99-14.05Q94.02-19.52 94.11-21.89L94.11-21.89L94.11-21.89Q94.21-24.26 94.21-26.02L94.21-26.02L94.21-26.02Q94.21-27.78 93.70-28.93L93.70-28.93L93.70-28.93Q93.18-30.08 91.74-30.08L91.74-30.08L91.74-30.08Q90.30-30.08 89.34-29.18L89.34-29.18L89.34-29.18Q88.38-28.29 87.62-26.56ZM123.78 1.28L123.78 1.28L123.78 1.28Q109.70 1.28 109.70-11.97L109.70-11.97L109.70-11.97Q109.70-21.38 114.88-27.46L114.88-27.46L114.88-27.46Q120.38-33.92 129.92-33.92L129.92-33.92L129.92-33.92Q136.83-33.92 140.35-30.72L140.35-30.72L140.35-30.72Q143.87-27.52 143.87-20.80L143.87-20.80L143.87-20.80Q143.87-10.56 138.37-4.61L138.37-4.61L138.37-4.61Q132.99 1.28 123.78 1.28ZM125.44-26.56L125.44-26.56L125.44-26.56Q124.67-24.83 124.06-22.24L124.06-22.24L124.06-22.24Q123.46-19.65 122.69-15.55L122.69-15.55L122.69-15.55Q121.92-11.46 121.92-6.40L121.92-6.40L121.92-6.40Q121.92-4.74 122.46-3.65L122.46-3.65L122.46-3.65Q123.01-2.56 124.48-2.56L124.48-2.56L124.48-2.56Q125.95-2.56 126.88-3.26L126.88-3.26L126.88-3.26Q127.81-3.97 128.51-5.63L128.51-5.63L128.51-5.63Q129.79-8.58 130.82-14.05L130.82-14.05L130.82-14.05Q131.84-19.52 131.94-21.89L131.94-21.89L131.94-21.89Q132.03-24.26 132.03-26.02L132.03-26.02L132.03-26.02Q132.03-27.78 131.52-28.93L131.52-28.93L131.52-28.93Q131.01-30.08 129.57-30.08L129.57-30.08L129.57-30.08Q128.13-30.08 127.17-29.18L127.17-29.18L127.17-29.18Q126.21-28.29 125.44-26.56ZM148.67-6.40L148.67-6.40L148.67-6.40Q148.67-8.13 149.57-12.48L149.57-12.48L152.96-29.76L149.18-29.76L149.44-31.68L149.44-31.68Q157.12-33.98 164.54-39.62L164.54-39.62L167.62-39.62L166.08-32.64L171.07-32.64L170.50-29.76L165.57-29.76L162.30-12.48L162.30-12.48Q161.47-8.51 161.47-7.17L161.47-7.17L161.47-7.17Q161.47-4.10 164.16-3.46L164.16-3.46L164.16-3.46Q163.52-1.28 161.22 0L161.22 0L161.22 0Q158.91 1.28 155.65 1.28L155.65 1.28L155.65 1.28Q152.38 1.28 150.53-0.77L150.53-0.77L150.53-0.77Q148.67-2.82 148.67-6.40ZM196.42-10.82L196.42-10.82L196.42-10.82Q198.02-9.73 198.02-7.33L198.02-7.33L198.02-7.33Q198.02-4.93 196.80-3.39L196.80-3.39L196.80-3.39Q195.58-1.86 193.60-0.83L193.60-0.83L193.60-0.83Q189.50 1.28 185.09 1.28L185.09 1.28L185.09 1.28Q180.67 1.28 178.08 0.32L178.08 0.32L178.08 0.32Q175.49-0.64 173.76-2.43L173.76-2.43L173.76-2.43Q170.37-5.82 170.37-12.03L170.37-12.03L170.37-12.03Q170.37-21.70 175.62-27.58L175.62-27.58L175.62-27.58Q181.25-33.92 191.04-33.92L191.04-33.92L191.04-33.92Q197.12-33.92 200.13-31.36L200.13-31.36L200.13-31.36Q202.37-29.44 202.37-26.30L202.37-26.30L202.37-26.30Q202.37-15.04 182.91-15.04L182.91-15.04L182.91-15.04Q182.66-13.38 182.66-11.97L182.66-11.97L182.66-11.97Q182.66-9.02 183.97-7.90L183.97-7.90L183.97-7.90Q185.28-6.78 187.71-6.78L187.71-6.78L187.71-6.78Q190.14-6.78 192.74-7.90L192.74-7.90L192.74-7.90Q195.33-9.02 196.42-10.82ZM183.36-17.79L183.36-17.79L183.36-17.79Q187.90-17.79 190.53-20.61L190.53-20.61L190.53-20.61Q193.15-23.30 193.15-27.58L193.15-27.58L193.15-27.58Q193.15-29.06 192.61-29.86L192.61-29.86L192.61-29.86Q192.06-30.66 190.98-30.66L190.98-30.66L190.98-30.66Q189.89-30.66 188.96-30.24L188.96-30.24L188.96-30.24Q188.03-29.82 187.07-28.42L187.07-28.42L187.07-28.42Q184.70-25.22 183.36-17.79ZM224.58-17.98L224.58-17.98L224.58-17.98Q226.88-22.08 226.88-26.24L226.88-26.24L226.88-26.24Q226.88-28.99 224.90-28.99L224.90-28.99L224.90-28.99Q223.36-28.99 221.76-26.37L221.76-26.37L221.76-26.37Q220.10-23.74 219.58-20.35L219.58-20.35L216.26 0L203.01 1.28L209.54-32.64L220.10-33.92L218.94-27.46L218.94-27.46Q222.08-33.92 229.12-33.92L229.12-33.92L229.12-33.92Q232.83-33.92 234.85-32L234.85-32L234.85-32Q236.86-30.08 236.86-26.14L236.86-26.14L236.86-26.14Q236.86-22.21 234.27-19.71L234.27-19.71L234.27-19.71Q231.68-17.22 227.26-17.22L227.26-17.22L227.26-17.22Q225.34-17.22 224.58-17.98ZM264.19 0L250.50 0L258.30-42.05L258.30-42.05Q264.64-42.75 273.89-42.75L273.89-42.75L273.89-42.75Q283.14-42.75 287.42-40.06L287.42-40.06L287.42-40.06Q291.71-37.38 291.71-31.97L291.71-31.97L291.71-31.97Q291.71-26.56 288.93-23.17L288.93-23.17L288.93-23.17Q286.14-19.78 281.34-18.69L281.34-18.69L281.34-18.69Q282.43-13.38 284.93-9.09L284.93-9.09L284.93-9.09Q287.23-5.06 289.92-3.78L289.92-3.78L289.92-3.78Q288.96-1.09 287.01 0.10L287.01 0.10L287.01 0.10Q285.06 1.28 282.27 1.28L282.27 1.28L282.27 1.28Q279.49 1.28 277.31-0.35L277.31-0.35L277.31-0.35Q275.14-1.98 273.41-4.99L273.41-4.99L273.41-4.99Q269.76-11.52 269.38-21.82L269.38-21.82L269.82-21.82L269.82-21.82Q274.56-21.95 276.93-24.42L276.93-24.42L276.93-24.42Q279.30-26.88 279.30-32.06L279.30-32.06L279.30-32.06Q279.30-38.53 273.86-38.78L273.86-38.78L272.45-38.78L272.45-38.78Q271.87-38.78 271.55-38.72L271.55-38.72L264.19 0ZM320.58-10.82L320.58-10.82L320.58-10.82Q322.18-9.73 322.18-7.33L322.18-7.33L322.18-7.33Q322.18-4.93 320.96-3.39L320.96-3.39L320.96-3.39Q319.74-1.86 317.76-0.83L317.76-0.83L317.76-0.83Q313.66 1.28 309.25 1.28L309.25 1.28L309.25 1.28Q304.83 1.28 302.24 0.32L302.24 0.32L302.24 0.32Q299.65-0.64 297.92-2.43L297.92-2.43L297.92-2.43Q294.53-5.82 294.53-12.03L294.53-12.03L294.53-12.03Q294.53-21.70 299.78-27.58L299.78-27.58L299.78-27.58Q305.41-33.92 315.20-33.92L315.20-33.92L315.20-33.92Q321.28-33.92 324.29-31.36L324.29-31.36L324.29-31.36Q326.53-29.44 326.53-26.30L326.53-26.30L326.53-26.30Q326.53-15.04 307.07-15.04L307.07-15.04L307.07-15.04Q306.82-13.38 306.82-11.97L306.82-11.97L306.82-11.97Q306.82-9.02 308.13-7.90L308.13-7.90L308.13-7.90Q309.44-6.78 311.87-6.78L311.87-6.78L311.87-6.78Q314.30-6.78 316.90-7.90L316.90-7.90L316.90-7.90Q319.49-9.02 320.58-10.82ZM307.52-17.79L307.52-17.79L307.52-17.79Q312.06-17.79 314.69-20.61L314.69-20.61L314.69-20.61Q317.31-23.30 317.31-27.58L317.31-27.58L317.31-27.58Q317.31-29.06 316.77-29.86L316.77-29.86L316.77-29.86Q316.22-30.66 315.14-30.66L315.14-30.66L315.14-30.66Q314.05-30.66 313.12-30.24L313.12-30.24L313.12-30.24Q312.19-29.82 311.23-28.42L311.23-28.42L311.23-28.42Q308.86-25.22 307.52-17.79ZM355.78 1.28L355.78 1.28L355.78 1.28Q348.03 1.28 348.03-4.74L348.03-4.74L348.03-4.74Q348.10-6.40 348.61-9.22L348.61-9.22L349.76-15.10L349.76-15.10Q351.49-23.42 351.49-25.28L351.49-25.28L351.49-25.28Q351.49-28.99 349.31-28.99L349.31-28.99L349.31-28.99Q345.66-28.99 343.74-19.46L343.74-19.46L339.97 0L327.10 1.28L333.76-32.70L344.26-33.92L343.23-27.65L343.23-27.65Q346.24-33.92 355.46-33.92L355.46-33.92L355.46-33.92Q359.94-33.92 361.82-32.03L361.82-32.03L361.82-32.03Q363.71-30.14 363.71-25.92L363.71-25.92L363.71-25.92Q363.71-21.95 361.66-12.67L361.66-12.67L361.66-12.67Q360.70-8.51 360.70-6.94L360.70-6.94L360.70-6.94Q360.70-5.38 361.57-4.48L361.57-4.48L361.57-4.48Q362.43-3.58 363.71-3.46L363.71-3.46L363.71-3.46Q363.07-1.28 360.86 0L360.86 0L360.86 0Q358.66 1.28 355.78 1.28ZM369.86-6.40L369.86-6.40L369.86-6.40Q369.86-8.13 370.75-12.48L370.75-12.48L374.14-29.76L370.37-29.76L370.62-31.68L370.62-31.68Q378.30-33.98 385.73-39.62L385.73-39.62L388.80-39.62L387.26-32.64L392.26-32.64L391.68-29.76L386.75-29.76L383.49-12.48L383.49-12.48Q382.66-8.51 382.66-7.17L382.66-7.17L382.66-7.17Q382.66-4.10 385.34-3.46L385.34-3.46L385.34-3.46Q384.70-1.28 382.40 0L382.40 0L382.40 0Q380.10 1.28 376.83 1.28L376.83 1.28L376.83 1.28Q373.57 1.28 371.71-0.77L371.71-0.77L371.71-0.77Q369.86-2.82 369.86-6.40ZM394.46-1.92L394.46-1.92L394.46-1.92Q392.96-3.58 392.29-6.21L392.29-6.21L392.29-6.21Q391.62-8.83 391.62-13.12L391.62-13.12L391.62-13.12Q391.62-17.41 393.09-21.31L393.09-21.31L393.09-21.31Q394.56-25.22 397.25-28.03L397.25-28.03L397.25-28.03Q402.75-33.92 411.84-33.92L411.84-33.92L411.84-33.92Q415.10-33.92 417.47-32.83L417.47-32.83L428.42-33.92L423.68-8.96L423.68-8.96Q423.49-8.19 423.49-6.78L423.49-6.78L423.49-6.78Q423.49-5.38 424.35-4.48L424.35-4.48L424.35-4.48Q425.22-3.58 426.50-3.46L426.50-3.46L426.50-3.46Q425.86-1.28 423.52 0L423.52 0L423.52 0Q421.18 1.28 418.56 1.28L418.56 1.28L418.56 1.28Q415.94 1.28 414.18 0.29L414.18 0.29L414.18 0.29Q412.42-0.70 411.90-2.37L411.90-2.37L411.90-2.37Q410.88-0.77 408.70 0.26L408.70 0.26L408.70 0.26Q406.53 1.28 403.62 1.28L403.62 1.28L403.62 1.28Q400.70 1.28 398.34 0.51L398.34 0.51L398.34 0.51Q395.97-0.26 394.46-1.92ZM407.97-27.90L407.97-27.90L407.97-27.90Q407.23-26.75 406.59-24.80L406.59-24.80L406.59-24.80Q405.95-22.85 404.90-17.63L404.90-17.63L404.90-17.63Q403.84-12.42 403.84-8.70L403.84-8.70L403.84-8.70Q403.84-4.99 404.42-3.90L404.42-3.90L404.42-3.90Q404.99-2.82 406.02-2.82L406.02-2.82L406.02-2.82Q408.06-2.82 409.57-4.77L409.57-4.77L409.57-4.77Q411.07-6.72 411.65-10.18L411.65-10.18L415.04-28.93L415.04-28.93Q413.70-30.08 412.13-30.08L412.13-30.08L412.13-30.08Q410.56-30.08 409.63-29.57L409.63-29.57L409.63-29.57Q408.70-29.06 407.97-27.90ZM447.17-3.52L447.17-3.52L447.17-3.52Q445.18 1.28 438.85 1.28L438.85 1.28L438.85 1.28Q435.65 1.28 433.60-0.96L433.60-0.96L433.60-0.96Q431.94-2.82 431.94-4.93L431.94-4.93L431.94-4.93Q431.94-9.73 434.18-20.22L434.18-20.22L438.85-44.80L451.84-46.08L445.63-13.70L445.63-13.70Q444.54-8.96 444.54-7.30L444.54-7.30L444.54-7.30Q444.54-3.65 447.17-3.52ZM490.75-29.57L490.75-29.57L490.75-29.57Q491.71-31.49 491.71-33.28L491.71-33.28L491.71-33.28Q491.71-35.07 491.52-36.06L491.52-36.06L491.52-36.06Q491.33-37.06 490.88-37.82L490.88-37.82L490.88-37.82Q489.92-39.49 488-39.49L488-39.49L488-39.49Q485.63-39.49 483.71-37.76L483.71-37.76L483.71-37.76Q481.66-35.97 481.66-33.15L481.66-33.15L481.66-33.15Q481.66-31.36 482.91-29.98L482.91-29.98L482.91-29.98Q484.16-28.61 486.08-27.33L486.08-27.33L486.08-27.33Q488-26.05 490.18-24.77L490.18-24.77L490.18-24.77Q492.35-23.49 494.27-21.95L494.27-21.95L494.27-21.95Q498.69-18.43 498.69-13.70L498.69-13.70L498.69-13.70Q498.69-10.50 496.99-7.78L496.99-7.78L496.99-7.78Q495.30-5.06 492.48-3.07L492.48-3.07L492.48-3.07Q486.34 1.28 478.21 1.28L478.21 1.28L478.21 1.28Q471.62 1.28 468.22-0.86L468.22-0.86L468.22-0.86Q464.83-3.01 464.83-6.27L464.83-6.27L464.83-6.27Q464.83-12.10 469.38-13.57L469.38-13.57L469.38-13.57Q470.66-14.02 472.61-14.02L472.61-14.02L472.61-14.02Q474.56-14.02 476.80-13.18L476.80-13.18L476.80-13.18Q475.78-10.56 475.78-8.19L475.78-8.19L475.78-8.19Q475.78-3.07 479.42-3.07L479.42-3.07L479.42-3.07Q481.79-3.07 483.74-4.80L483.74-4.80L483.74-4.80Q485.70-6.53 485.70-8.48L485.70-8.48L485.70-8.48Q485.70-10.43 484.45-11.84L484.45-11.84L484.45-11.84Q483.20-13.25 481.34-14.37L481.34-14.37L481.34-14.37Q479.49-15.49 477.34-16.58L477.34-16.58L477.34-16.58Q475.20-17.66 473.34-19.20L473.34-19.20L473.34-19.20Q468.99-22.72 468.99-28.35L468.99-28.35L468.99-28.35Q468.99-32 470.78-34.85L470.78-34.85L470.78-34.85Q472.58-37.70 475.46-39.62L475.46-39.62L475.46-39.62Q481.22-43.52 488.29-43.52L488.29-43.52L488.29-43.52Q495.36-43.52 498.78-41.41L498.78-41.41L498.78-41.41Q502.21-39.30 502.21-35.71L502.21-35.71L502.21-35.71Q502.21-32.58 499.78-30.59L499.78-30.59L499.78-30.59Q497.66-28.93 495.10-28.93L495.10-28.93L495.10-28.93Q492.54-28.93 490.75-29.57ZM529.47-10.82L529.47-10.82L529.47-10.82Q531.07-9.73 531.07-7.33L531.07-7.33L531.07-7.33Q531.07-4.93 529.86-3.39L529.86-3.39L529.86-3.39Q528.64-1.86 526.66-0.83L526.66-0.83L526.66-0.83Q522.56 1.28 518.14 1.28L518.14 1.28L518.14 1.28Q513.73 1.28 511.14 0.32L511.14 0.32L511.14 0.32Q508.54-0.64 506.82-2.43L506.82-2.43L506.82-2.43Q503.42-5.82 503.42-12.03L503.42-12.03L503.42-12.03Q503.42-21.70 508.67-27.58L508.67-27.58L508.67-27.58Q514.30-33.92 524.10-33.92L524.10-33.92L524.10-33.92Q530.18-33.92 533.18-31.36L533.18-31.36L533.18-31.36Q535.42-29.44 535.42-26.30L535.42-26.30L535.42-26.30Q535.42-15.04 515.97-15.04L515.97-15.04L515.97-15.04Q515.71-13.38 515.71-11.97L515.71-11.97L515.71-11.97Q515.71-9.02 517.02-7.90L517.02-7.90L517.02-7.90Q518.34-6.78 520.77-6.78L520.77-6.78L520.77-6.78Q523.20-6.78 525.79-7.90L525.79-7.90L525.79-7.90Q528.38-9.02 529.47-10.82ZM516.42-17.79L516.42-17.79L516.42-17.79Q520.96-17.79 523.58-20.61L523.58-20.61L523.58-20.61Q526.21-23.30 526.21-27.58L526.21-27.58L526.21-27.58Q526.21-29.06 525.66-29.86L525.66-29.86L525.66-29.86Q525.12-30.66 524.03-30.66L524.03-30.66L524.03-30.66Q522.94-30.66 522.02-30.24L522.02-30.24L522.02-30.24Q521.09-29.82 520.13-28.42L520.13-28.42L520.13-28.42Q517.76-25.22 516.42-17.79ZM557.63-17.98L557.63-17.98L557.63-17.98Q559.94-22.08 559.94-26.24L559.94-26.24L559.94-26.24Q559.94-28.99 557.95-28.99L557.95-28.99L557.95-28.99Q556.42-28.99 554.82-26.37L554.82-26.37L554.82-26.37Q553.15-23.74 552.64-20.35L552.64-20.35L549.31 0L536.06 1.28L542.59-32.64L553.15-33.92L552-27.46L552-27.46Q555.14-33.92 562.18-33.92L562.18-33.92L562.18-33.92Q565.89-33.92 567.90-32L567.90-32L567.90-32Q569.92-30.08 569.92-26.14L569.92-26.14L569.92-26.14Q569.92-22.21 567.33-19.71L567.33-19.71L567.33-19.71Q564.74-17.22 560.32-17.22L560.32-17.22L560.32-17.22Q558.40-17.22 557.63-17.98ZM594.18-31.55L594.18-31.55L594.18-31.55Q596.29-33.92 599.94-33.92L599.94-33.92L599.94-33.92Q602.18-33.92 603.90-32.70L603.90-32.70L603.90-32.70Q605.63-31.49 605.63-29.22L605.63-29.22L605.63-29.22Q605.63-26.94 604.93-24.51L604.93-24.51L604.93-24.51Q604.22-22.08 603.14-19.58L603.14-19.58L603.14-19.58Q600.96-14.72 597.95-10.69L597.95-10.69L597.95-10.69Q593.73-4.86 589.66-1.79L589.66-1.79L589.66-1.79Q585.60 1.28 581.18 1.28L581.18 1.28L581.18 1.28Q577.60 1.28 575.42 0.45L575.42 0.45L575.42 0.45Q575.04-12.99 574.56-17.79L574.56-17.79L574.56-17.79Q574.08-22.59 573.70-25.22L573.70-25.22L573.70-25.22Q573.06-30.34 571.14-31.55L571.14-31.55L571.14-31.55Q572.61-32.83 574.05-33.38L574.05-33.38L574.05-33.38Q575.49-33.92 578.46-33.92L578.46-33.92L578.46-33.92Q581.44-33.92 583.55-31.58L583.55-31.58L583.55-31.58Q585.66-29.25 586.08-25.12L586.08-25.12L586.08-25.12Q586.50-20.99 586.50-16L586.50-16L586.50-16Q586.50-11.01 586.11-4.99L586.11-4.99L586.11-4.99Q588.10-6.40 590.21-10.69L590.21-10.69L590.21-10.69Q593.09-16.64 594.11-23.81L594.11-23.81L594.11-23.81Q594.43-25.98 594.43-28.29L594.43-28.29L594.43-28.29Q594.43-30.59 594.18-31.55ZM622.72-3.52L622.72-3.52L622.72-3.52Q620.74 1.28 614.40 1.28L614.40 1.28L614.40 1.28Q611.14 1.28 609.09-0.96L609.09-0.96L609.09-0.96Q607.36-2.94 607.36-4.93L607.36-4.93L607.36-4.93Q607.36-10.11 609.73-20.22L609.73-20.22L612.10-32.64L625.09-33.92L621.18-13.70L621.18-13.70Q620.10-8.96 620.10-7.30L620.10-7.30L620.10-7.30Q620.10-3.65 622.72-3.52ZM613.25-41.54L613.25-41.54L613.25-41.54Q613.25-44.03 615.33-45.38L615.33-45.38L615.33-45.38Q617.41-46.72 620.42-46.72L620.42-46.72L620.42-46.72Q623.42-46.72 625.25-45.38L625.25-45.38L625.25-45.38Q627.07-44.03 627.07-41.54L627.07-41.54L627.07-41.54Q627.07-39.04 625.06-37.76L625.06-37.76L625.06-37.76Q623.04-36.48 620.03-36.48L620.03-36.48L620.03-36.48Q617.02-36.48 615.14-37.76L615.14-37.76L615.14-37.76Q613.25-39.04 613.25-41.54ZM659.58-26.62L659.58-26.62L659.58-26.62Q659.58-23.94 657.34-22.27L657.34-22.27L657.34-22.27Q655.10-20.61 651.46-20.61L651.46-20.61L651.46-20.61Q649.92-20.61 649.02-21.06L649.02-21.06L649.02-21.06Q649.73-22.72 649.95-24.80L649.95-24.80L649.95-24.80Q650.18-26.88 650.18-27.46L650.18-27.46L650.18-27.46Q650.18-30.14 648.32-30.14L648.32-30.14L648.32-30.14Q647.04-30.14 645.60-28.54L645.60-28.54L645.60-28.54Q644.16-26.94 642.94-24.45L642.94-24.45L642.94-24.45Q640.26-18.69 640.26-12.86L640.26-12.86L640.26-12.86Q640.26-9.66 641.47-8.22L641.47-8.22L641.47-8.22Q642.69-6.78 645.38-6.78L645.38-6.78L645.38-6.78Q649.09-6.78 652.03-9.86L652.03-9.86L652.03-9.86Q652.86-10.82 653.31-11.90L653.31-11.90L653.31-11.90Q655.74-10.62 655.74-7.10L655.74-7.10L655.74-7.10Q655.74-3.52 651.78-1.15L651.78-1.15L651.78-1.15Q647.68 1.28 641.15 1.28L641.15 1.28L641.15 1.28Q628.16 1.28 628.16-12.48L628.16-12.48L628.16-12.48Q628.16-22.53 633.86-28.29L633.86-28.29L633.86-28.29Q639.36-33.92 649.47-33.92L649.47-33.92L649.47-33.92Q659.58-33.92 659.58-26.62ZM687.23-10.82L687.23-10.82L687.23-10.82Q688.83-9.73 688.83-7.33L688.83-7.33L688.83-7.33Q688.83-4.93 687.62-3.39L687.62-3.39L687.62-3.39Q686.40-1.86 684.42-0.83L684.42-0.83L684.42-0.83Q680.32 1.28 675.90 1.28L675.90 1.28L675.90 1.28Q671.49 1.28 668.90 0.32L668.90 0.32L668.90 0.32Q666.30-0.64 664.58-2.43L664.58-2.43L664.58-2.43Q661.18-5.82 661.18-12.03L661.18-12.03L661.18-12.03Q661.18-21.70 666.43-27.58L666.43-27.58L666.43-27.58Q672.06-33.92 681.86-33.92L681.86-33.92L681.86-33.92Q687.94-33.92 690.94-31.36L690.94-31.36L690.94-31.36Q693.18-29.44 693.18-26.30L693.18-26.30L693.18-26.30Q693.18-15.04 673.73-15.04L673.73-15.04L673.73-15.04Q673.47-13.38 673.47-11.97L673.47-11.97L673.47-11.97Q673.47-9.02 674.78-7.90L674.78-7.90L674.78-7.90Q676.10-6.78 678.53-6.78L678.53-6.78L678.53-6.78Q680.96-6.78 683.55-7.90L683.55-7.90L683.55-7.90Q686.14-9.02 687.23-10.82ZM674.18-17.79L674.18-17.79L674.18-17.79Q678.72-17.79 681.34-20.61L681.34-20.61L681.34-20.61Q683.97-23.30 683.97-27.58L683.97-27.58L683.97-27.58Q683.97-29.06 683.42-29.86L683.42-29.86L683.42-29.86Q682.88-30.66 681.79-30.66L681.79-30.66L681.79-30.66Q680.70-30.66 679.78-30.24L679.78-30.24L679.78-30.24Q678.85-29.82 677.89-28.42L677.89-28.42L677.89-28.42Q675.52-25.22 674.18-17.79Z" fill="#f00" stroke="#0f0" stroke-width="1.8"></path></g></g><g><g transform="translate(-97.053431391716, 99)"><path d="M26.05-29.57L26.05-29.57L26.05-29.57Q27.01-31.49 27.01-33.28L27.01-33.28L27.01-33.28Q27.01-35.07 26.82-36.06L26.82-36.06L26.82-36.06Q26.62-37.06 26.18-37.82L26.18-37.82L26.18-37.82Q25.22-39.49 23.30-39.49L23.30-39.49L23.30-39.49Q20.93-39.49 19.01-37.76L19.01-37.76L19.01-37.76Q16.96-35.97 16.96-33.15L16.96-33.15L16.96-33.15Q16.96-31.36 18.21-29.98L18.21-29.98L18.21-29.98Q19.46-28.61 21.38-27.33L21.38-27.33L21.38-27.33Q23.30-26.05 25.47-24.77L25.47-24.77L25.47-24.77Q27.65-23.49 29.57-21.95L29.57-21.95L29.57-21.95Q33.98-18.43 33.98-13.70L33.98-13.70L33.98-13.70Q33.98-10.50 32.29-7.78L32.29-7.78L32.29-7.78Q30.59-5.06 27.78-3.07L27.78-3.07L27.78-3.07Q21.63 1.28 13.50 1.28L13.50 1.28L13.50 1.28Q6.91 1.28 3.52-0.86L3.52-0.86L3.52-0.86Q0.13-3.01 0.13-6.27L0.13-6.27L0.13-6.27Q0.13-12.10 4.67-13.57L4.67-13.57L4.67-13.57Q5.95-14.02 7.90-14.02L7.90-14.02L7.90-14.02Q9.86-14.02 12.10-13.18L12.10-13.18L12.10-13.18Q11.07-10.56 11.07-8.19L11.07-8.19L11.07-8.19Q11.07-3.07 14.72-3.07L14.72-3.07L14.72-3.07Q17.09-3.07 19.04-4.80L19.04-4.80L19.04-4.80Q20.99-6.53 20.99-8.48L20.99-8.48L20.99-8.48Q20.99-10.43 19.74-11.84L19.74-11.84L19.74-11.84Q18.50-13.25 16.64-14.37L16.64-14.37L16.64-14.37Q14.78-15.49 12.64-16.58L12.64-16.58L12.64-16.58Q10.50-17.66 8.64-19.20L8.64-19.20L8.64-19.20Q4.29-22.72 4.29-28.35L4.29-28.35L4.29-28.35Q4.29-32 6.08-34.85L6.08-34.85L6.08-34.85Q7.87-37.70 10.75-39.62L10.75-39.62L10.75-39.62Q16.51-43.52 23.58-43.52L23.58-43.52L23.58-43.52Q30.66-43.52 34.08-41.41L34.08-41.41L34.08-41.41Q37.50-39.30 37.50-35.71L37.50-35.71L37.50-35.71Q37.50-32.58 35.07-30.59L35.07-30.59L35.07-30.59Q32.96-28.93 30.40-28.93L30.40-28.93L30.40-28.93Q27.84-28.93 26.05-29.57ZM70.27-26.62L70.27-26.62L70.27-26.62Q70.27-23.94 68.03-22.27L68.03-22.27L68.03-22.27Q65.79-20.61 62.14-20.61L62.14-20.61L62.14-20.61Q60.61-20.61 59.71-21.06L59.71-21.06L59.71-21.06Q60.42-22.72 60.64-24.80L60.64-24.80L60.64-24.80Q60.86-26.88 60.86-27.46L60.86-27.46L60.86-27.46Q60.86-30.14 59.01-30.14L59.01-30.14L59.01-30.14Q57.73-30.14 56.29-28.54L56.29-28.54L56.29-28.54Q54.85-26.94 53.63-24.45L53.63-24.45L53.63-24.45Q50.94-18.69 50.94-12.86L50.94-12.86L50.94-12.86Q50.94-9.66 52.16-8.22L52.16-8.22L52.16-8.22Q53.38-6.78 56.06-6.78L56.06-6.78L56.06-6.78Q59.78-6.78 62.72-9.86L62.72-9.86L62.72-9.86Q63.55-10.82 64-11.90L64-11.90L64-11.90Q66.43-10.62 66.43-7.10L66.43-7.10L66.43-7.10Q66.43-3.52 62.46-1.15L62.46-1.15L62.46-1.15Q58.37 1.28 51.84 1.28L51.84 1.28L51.84 1.28Q38.85 1.28 38.85-12.48L38.85-12.48L38.85-12.48Q38.85-22.53 44.54-28.29L44.54-28.29L44.54-28.29Q50.05-33.92 60.16-33.92L60.16-33.92L60.16-33.92Q70.27-33.92 70.27-26.62ZM85.95 1.28L85.95 1.28L85.95 1.28Q71.87 1.28 71.87-11.97L71.87-11.97L71.87-11.97Q71.87-21.38 77.06-27.46L77.06-27.46L77.06-27.46Q82.56-33.92 92.10-33.92L92.10-33.92L92.10-33.92Q99.01-33.92 102.53-30.72L102.53-30.72L102.53-30.72Q106.05-27.52 106.05-20.80L106.05-20.80L106.05-20.80Q106.05-10.56 100.54-4.61L100.54-4.61L100.54-4.61Q95.17 1.28 85.95 1.28ZM87.62-26.56L87.62-26.56L87.62-26.56Q86.85-24.83 86.24-22.24L86.24-22.24L86.24-22.24Q85.63-19.65 84.86-15.55L84.86-15.55L84.86-15.55Q84.10-11.46 84.10-6.40L84.10-6.40L84.10-6.40Q84.10-4.74 84.64-3.65L84.64-3.65L84.64-3.65Q85.18-2.56 86.66-2.56L86.66-2.56L86.66-2.56Q88.13-2.56 89.06-3.26L89.06-3.26L89.06-3.26Q89.98-3.97 90.69-5.63L90.69-5.63L90.69-5.63Q91.97-8.58 92.99-14.05L92.99-14.05L92.99-14.05Q94.02-19.52 94.11-21.89L94.11-21.89L94.11-21.89Q94.21-24.26 94.21-26.02L94.21-26.02L94.21-26.02Q94.21-27.78 93.70-28.93L93.70-28.93L93.70-28.93Q93.18-30.08 91.74-30.08L91.74-30.08L91.74-30.08Q90.30-30.08 89.34-29.18L89.34-29.18L89.34-29.18Q88.38-28.29 87.62-26.56ZM123.78 1.28L123.78 1.28L123.78 1.28Q109.70 1.28 109.70-11.97L109.70-11.97L109.70-11.97Q109.70-21.38 114.88-27.46L114.88-27.46L114.88-27.46Q120.38-33.92 129.92-33.92L129.92-33.92L129.92-33.92Q136.83-33.92 140.35-30.72L140.35-30.72L140.35-30.72Q143.87-27.52 143.87-20.80L143.87-20.80L143.87-20.80Q143.87-10.56 138.37-4.61L138.37-4.61L138.37-4.61Q132.99 1.28 123.78 1.28ZM125.44-26.56L125.44-26.56L125.44-26.56Q124.67-24.83 124.06-22.24L124.06-22.24L124.06-22.24Q123.46-19.65 122.69-15.55L122.69-15.55L122.69-15.55Q121.92-11.46 121.92-6.40L121.92-6.40L121.92-6.40Q121.92-4.74 122.46-3.65L122.46-3.65L122.46-3.65Q123.01-2.56 124.48-2.56L124.48-2.56L124.48-2.56Q125.95-2.56 126.88-3.26L126.88-3.26L126.88-3.26Q127.81-3.97 128.51-5.63L128.51-5.63L128.51-5.63Q129.79-8.58 130.82-14.05L130.82-14.05L130.82-14.05Q131.84-19.52 131.94-21.89L131.94-21.89L131.94-21.89Q132.03-24.26 132.03-26.02L132.03-26.02L132.03-26.02Q132.03-27.78 131.52-28.93L131.52-28.93L131.52-28.93Q131.01-30.08 129.57-30.08L129.57-30.08L129.57-30.08Q128.13-30.08 127.17-29.18L127.17-29.18L127.17-29.18Q126.21-28.29 125.44-26.56ZM148.67-6.40L148.67-6.40L148.67-6.40Q148.67-8.13 149.57-12.48L149.57-12.48L152.96-29.76L149.18-29.76L149.44-31.68L149.44-31.68Q157.12-33.98 164.54-39.62L164.54-39.62L167.62-39.62L166.08-32.64L171.07-32.64L170.50-29.76L165.57-29.76L162.30-12.48L162.30-12.48Q161.47-8.51 161.47-7.17L161.47-7.17L161.47-7.17Q161.47-4.10 164.16-3.46L164.16-3.46L164.16-3.46Q163.52-1.28 161.22 0L161.22 0L161.22 0Q158.91 1.28 155.65 1.28L155.65 1.28L155.65 1.28Q152.38 1.28 150.53-0.77L150.53-0.77L150.53-0.77Q148.67-2.82 148.67-6.40ZM196.42-10.82L196.42-10.82L196.42-10.82Q198.02-9.73 198.02-7.33L198.02-7.33L198.02-7.33Q198.02-4.93 196.80-3.39L196.80-3.39L196.80-3.39Q195.58-1.86 193.60-0.83L193.60-0.83L193.60-0.83Q189.50 1.28 185.09 1.28L185.09 1.28L185.09 1.28Q180.67 1.28 178.08 0.32L178.08 0.32L178.08 0.32Q175.49-0.64 173.76-2.43L173.76-2.43L173.76-2.43Q170.37-5.82 170.37-12.03L170.37-12.03L170.37-12.03Q170.37-21.70 175.62-27.58L175.62-27.58L175.62-27.58Q181.25-33.92 191.04-33.92L191.04-33.92L191.04-33.92Q197.12-33.92 200.13-31.36L200.13-31.36L200.13-31.36Q202.37-29.44 202.37-26.30L202.37-26.30L202.37-26.30Q202.37-15.04 182.91-15.04L182.91-15.04L182.91-15.04Q182.66-13.38 182.66-11.97L182.66-11.97L182.66-11.97Q182.66-9.02 183.97-7.90L183.97-7.90L183.97-7.90Q185.28-6.78 187.71-6.78L187.71-6.78L187.71-6.78Q190.14-6.78 192.74-7.90L192.74-7.90L192.74-7.90Q195.33-9.02 196.42-10.82ZM183.36-17.79L183.36-17.79L183.36-17.79Q187.90-17.79 190.53-20.61L190.53-20.61L190.53-20.61Q193.15-23.30 193.15-27.58L193.15-27.58L193.15-27.58Q193.15-29.06 192.61-29.86L192.61-29.86L192.61-29.86Q192.06-30.66 190.98-30.66L190.98-30.66L190.98-30.66Q189.89-30.66 188.96-30.24L188.96-30.24L188.96-30.24Q188.03-29.82 187.07-28.42L187.07-28.42L187.07-28.42Q184.70-25.22 183.36-17.79ZM224.58-17.98L224.58-17.98L224.58-17.98Q226.88-22.08 226.88-26.24L226.88-26.24L226.88-26.24Q226.88-28.99 224.90-28.99L224.90-28.99L224.90-28.99Q223.36-28.99 221.76-26.37L221.76-26.37L221.76-26.37Q220.10-23.74 219.58-20.35L219.58-20.35L216.26 0L203.01 1.28L209.54-32.64L220.10-33.92L218.94-27.46L218.94-27.46Q222.08-33.92 229.12-33.92L229.12-33.92L229.12-33.92Q232.83-33.92 234.85-32L234.85-32L234.85-32Q236.86-30.08 236.86-26.14L236.86-26.14L236.86-26.14Q236.86-22.21 234.27-19.71L234.27-19.71L234.27-19.71Q231.68-17.22 227.26-17.22L227.26-17.22L227.26-17.22Q225.34-17.22 224.58-17.98ZM264.19 0L250.50 0L258.30-42.05L258.30-42.05Q264.64-42.75 273.89-42.75L273.89-42.75L273.89-42.75Q283.14-42.75 287.42-40.06L287.42-40.06L287.42-40.06Q291.71-37.38 291.71-31.97L291.71-31.97L291.71-31.97Q291.71-26.56 288.93-23.17L288.93-23.17L288.93-23.17Q286.14-19.78 281.34-18.69L281.34-18.69L281.34-18.69Q282.43-13.38 284.93-9.09L284.93-9.09L284.93-9.09Q287.23-5.06 289.92-3.78L289.92-3.78L289.92-3.78Q288.96-1.09 287.01 0.10L287.01 0.10L287.01 0.10Q285.06 1.28 282.27 1.28L282.27 1.28L282.27 1.28Q279.49 1.28 277.31-0.35L277.31-0.35L277.31-0.35Q275.14-1.98 273.41-4.99L273.41-4.99L273.41-4.99Q269.76-11.52 269.38-21.82L269.38-21.82L269.82-21.82L269.82-21.82Q274.56-21.95 276.93-24.42L276.93-24.42L276.93-24.42Q279.30-26.88 279.30-32.06L279.30-32.06L279.30-32.06Q279.30-38.53 273.86-38.78L273.86-38.78L272.45-38.78L272.45-38.78Q271.87-38.78 271.55-38.72L271.55-38.72L264.19 0ZM320.58-10.82L320.58-10.82L320.58-10.82Q322.18-9.73 322.18-7.33L322.18-7.33L322.18-7.33Q322.18-4.93 320.96-3.39L320.96-3.39L320.96-3.39Q319.74-1.86 317.76-0.83L317.76-0.83L317.76-0.83Q313.66 1.28 309.25 1.28L309.25 1.28L309.25 1.28Q304.83 1.28 302.24 0.32L302.24 0.32L302.24 0.32Q299.65-0.64 297.92-2.43L297.92-2.43L297.92-2.43Q294.53-5.82 294.53-12.03L294.53-12.03L294.53-12.03Q294.53-21.70 299.78-27.58L299.78-27.58L299.78-27.58Q305.41-33.92 315.20-33.92L315.20-33.92L315.20-33.92Q321.28-33.92 324.29-31.36L324.29-31.36L324.29-31.36Q326.53-29.44 326.53-26.30L326.53-26.30L326.53-26.30Q326.53-15.04 307.07-15.04L307.07-15.04L307.07-15.04Q306.82-13.38 306.82-11.97L306.82-11.97L306.82-11.97Q306.82-9.02 308.13-7.90L308.13-7.90L308.13-7.90Q309.44-6.78 311.87-6.78L311.87-6.78L311.87-6.78Q314.30-6.78 316.90-7.90L316.90-7.90L316.90-7.90Q319.49-9.02 320.58-10.82ZM307.52-17.79L307.52-17.79L307.52-17.79Q312.06-17.79 314.69-20.61L314.69-20.61L314.69-20.61Q317.31-23.30 317.31-27.58L317.31-27.58L317.31-27.58Q317.31-29.06 316.77-29.86L316.77-29.86L316.77-29.86Q316.22-30.66 315.14-30.66L315.14-30.66L315.14-30.66Q314.05-30.66 313.12-30.24L313.12-30.24L313.12-30.24Q312.19-29.82 311.23-28.42L311.23-28.42L311.23-28.42Q308.86-25.22 307.52-17.79ZM355.78 1.28L355.78 1.28L355.78 1.28Q348.03 1.28 348.03-4.74L348.03-4.74L348.03-4.74Q348.10-6.40 348.61-9.22L348.61-9.22L349.76-15.10L349.76-15.10Q351.49-23.42 351.49-25.28L351.49-25.28L351.49-25.28Q351.49-28.99 349.31-28.99L349.31-28.99L349.31-28.99Q345.66-28.99 343.74-19.46L343.74-19.46L339.97 0L327.10 1.28L333.76-32.70L344.26-33.92L343.23-27.65L343.23-27.65Q346.24-33.92 355.46-33.92L355.46-33.92L355.46-33.92Q359.94-33.92 361.82-32.03L361.82-32.03L361.82-32.03Q363.71-30.14 363.71-25.92L363.71-25.92L363.71-25.92Q363.71-21.95 361.66-12.67L361.66-12.67L361.66-12.67Q360.70-8.51 360.70-6.94L360.70-6.94L360.70-6.94Q360.70-5.38 361.57-4.48L361.57-4.48L361.57-4.48Q362.43-3.58 363.71-3.46L363.71-3.46L363.71-3.46Q363.07-1.28 360.86 0L360.86 0L360.86 0Q358.66 1.28 355.78 1.28ZM369.86-6.40L369.86-6.40L369.86-6.40Q369.86-8.13 370.75-12.48L370.75-12.48L374.14-29.76L370.37-29.76L370.62-31.68L370.62-31.68Q378.30-33.98 385.73-39.62L385.73-39.62L388.80-39.62L387.26-32.64L392.26-32.64L391.68-29.76L386.75-29.76L383.49-12.48L383.49-12.48Q382.66-8.51 382.66-7.17L382.66-7.17L382.66-7.17Q382.66-4.10 385.34-3.46L385.34-3.46L385.34-3.46Q384.70-1.28 382.40 0L382.40 0L382.40 0Q380.10 1.28 376.83 1.28L376.83 1.28L376.83 1.28Q373.57 1.28 371.71-0.77L371.71-0.77L371.71-0.77Q369.86-2.82 369.86-6.40ZM394.46-1.92L394.46-1.92L394.46-1.92Q392.96-3.58 392.29-6.21L392.29-6.21L392.29-6.21Q391.62-8.83 391.62-13.12L391.62-13.12L391.62-13.12Q391.62-17.41 393.09-21.31L393.09-21.31L393.09-21.31Q394.56-25.22 397.25-28.03L397.25-28.03L397.25-28.03Q402.75-33.92 411.84-33.92L411.84-33.92L411.84-33.92Q415.10-33.92 417.47-32.83L417.47-32.83L428.42-33.92L423.68-8.96L423.68-8.96Q423.49-8.19 423.49-6.78L423.49-6.78L423.49-6.78Q423.49-5.38 424.35-4.48L424.35-4.48L424.35-4.48Q425.22-3.58 426.50-3.46L426.50-3.46L426.50-3.46Q425.86-1.28 423.52 0L423.52 0L423.52 0Q421.18 1.28 418.56 1.28L418.56 1.28L418.56 1.28Q415.94 1.28 414.18 0.29L414.18 0.29L414.18 0.29Q412.42-0.70 411.90-2.37L411.90-2.37L411.90-2.37Q410.88-0.77 408.70 0.26L408.70 0.26L408.70 0.26Q406.53 1.28 403.62 1.28L403.62 1.28L403.62 1.28Q400.70 1.28 398.34 0.51L398.34 0.51L398.34 0.51Q395.97-0.26 394.46-1.92ZM407.97-27.90L407.97-27.90L407.97-27.90Q407.23-26.75 406.59-24.80L406.59-24.80L406.59-24.80Q405.95-22.85 404.90-17.63L404.90-17.63L404.90-17.63Q403.84-12.42 403.84-8.70L403.84-8.70L403.84-8.70Q403.84-4.99 404.42-3.90L404.42-3.90L404.42-3.90Q404.99-2.82 406.02-2.82L406.02-2.82L406.02-2.82Q408.06-2.82 409.57-4.77L409.57-4.77L409.57-4.77Q411.07-6.72 411.65-10.18L411.65-10.18L415.04-28.93L415.04-28.93Q413.70-30.08 412.13-30.08L412.13-30.08L412.13-30.08Q410.56-30.08 409.63-29.57L409.63-29.57L409.63-29.57Q408.70-29.06 407.97-27.90ZM447.17-3.52L447.17-3.52L447.17-3.52Q445.18 1.28 438.85 1.28L438.85 1.28L438.85 1.28Q435.65 1.28 433.60-0.96L433.60-0.96L433.60-0.96Q431.94-2.82 431.94-4.93L431.94-4.93L431.94-4.93Q431.94-9.73 434.18-20.22L434.18-20.22L438.85-44.80L451.84-46.08L445.63-13.70L445.63-13.70Q444.54-8.96 444.54-7.30L444.54-7.30L444.54-7.30Q444.54-3.65 447.17-3.52ZM490.75-29.57L490.75-29.57L490.75-29.57Q491.71-31.49 491.71-33.28L491.71-33.28L491.71-33.28Q491.71-35.07 491.52-36.06L491.52-36.06L491.52-36.06Q491.33-37.06 490.88-37.82L490.88-37.82L490.88-37.82Q489.92-39.49 488-39.49L488-39.49L488-39.49Q485.63-39.49 483.71-37.76L483.71-37.76L483.71-37.76Q481.66-35.97 481.66-33.15L481.66-33.15L481.66-33.15Q481.66-31.36 482.91-29.98L482.91-29.98L482.91-29.98Q484.16-28.61 486.08-27.33L486.08-27.33L486.08-27.33Q488-26.05 490.18-24.77L490.18-24.77L490.18-24.77Q492.35-23.49 494.27-21.95L494.27-21.95L494.27-21.95Q498.69-18.43 498.69-13.70L498.69-13.70L498.69-13.70Q498.69-10.50 496.99-7.78L496.99-7.78L496.99-7.78Q495.30-5.06 492.48-3.07L492.48-3.07L492.48-3.07Q486.34 1.28 478.21 1.28L478.21 1.28L478.21 1.28Q471.62 1.28 468.22-0.86L468.22-0.86L468.22-0.86Q464.83-3.01 464.83-6.27L464.83-6.27L464.83-6.27Q464.83-12.10 469.38-13.57L469.38-13.57L469.38-13.57Q470.66-14.02 472.61-14.02L472.61-14.02L472.61-14.02Q474.56-14.02 476.80-13.18L476.80-13.18L476.80-13.18Q475.78-10.56 475.78-8.19L475.78-8.19L475.78-8.19Q475.78-3.07 479.42-3.07L479.42-3.07L479.42-3.07Q481.79-3.07 483.74-4.80L483.74-4.80L483.74-4.80Q485.70-6.53 485.70-8.48L485.70-8.48L485.70-8.48Q485.70-10.43 484.45-11.84L484.45-11.84L484.45-11.84Q483.20-13.25 481.34-14.37L481.34-14.37L481.34-14.37Q479.49-15.49 477.34-16.58L477.34-16.58L477.34-16.58Q475.20-17.66 473.34-19.20L473.34-19.20L473.34-19.20Q468.99-22.72 468.99-28.35L468.99-28.35L468.99-28.35Q468.99-32 470.78-34.85L470.78-34.85L470.78-34.85Q472.58-37.70 475.46-39.62L475.46-39.62L475.46-39.62Q481.22-43.52 488.29-43.52L488.29-43.52L488.29-43.52Q495.36-43.52 498.78-41.41L498.78-41.41L498.78-41.41Q502.21-39.30 502.21-35.71L502.21-35.71L502.21-35.71Q502.21-32.58 499.78-30.59L499.78-30.59L499.78-30.59Q497.66-28.93 495.10-28.93L495.10-28.93L495.10-28.93Q492.54-28.93 490.75-29.57ZM529.47-10.82L529.47-10.82L529.47-10.82Q531.07-9.73 531.07-7.33L531.07-7.33L531.07-7.33Q531.07-4.93 529.86-3.39L529.86-3.39L529.86-3.39Q528.64-1.86 526.66-0.83L526.66-0.83L526.66-0.83Q522.56 1.28 518.14 1.28L518.14 1.28L518.14 1.28Q513.73 1.28 511.14 0.32L511.14 0.32L511.14 0.32Q508.54-0.64 506.82-2.43L506.82-2.43L506.82-2.43Q503.42-5.82 503.42-12.03L503.42-12.03L503.42-12.03Q503.42-21.70 508.67-27.58L508.67-27.58L508.67-27.58Q514.30-33.92 524.10-33.92L524.10-33.92L524.10-33.92Q530.18-33.92 533.18-31.36L533.18-31.36L533.18-31.36Q535.42-29.44 535.42-26.30L535.42-26.30L535.42-26.30Q535.42-15.04 515.97-15.04L515.97-15.04L515.97-15.04Q515.71-13.38 515.71-11.97L515.71-11.97L515.71-11.97Q515.71-9.02 517.02-7.90L517.02-7.90L517.02-7.90Q518.34-6.78 520.77-6.78L520.77-6.78L520.77-6.78Q523.20-6.78 525.79-7.90L525.79-7.90L525.79-7.90Q528.38-9.02 529.47-10.82ZM516.42-17.79L516.42-17.79L516.42-17.79Q520.96-17.79 523.58-20.61L523.58-20.61L523.58-20.61Q526.21-23.30 526.21-27.58L526.21-27.58L526.21-27.58Q526.21-29.06 525.66-29.86L525.66-29.86L525.66-29.86Q525.12-30.66 524.03-30.66L524.03-30.66L524.03-30.66Q522.94-30.66 522.02-30.24L522.02-30.24L522.02-30.24Q521.09-29.82 520.13-28.42L520.13-28.42L520.13-28.42Q517.76-25.22 516.42-17.79ZM557.63-17.98L557.63-17.98L557.63-17.98Q559.94-22.08 559.94-26.24L559.94-26.24L559.94-26.24Q559.94-28.99 557.95-28.99L557.95-28.99L557.95-28.99Q556.42-28.99 554.82-26.37L554.82-26.37L554.82-26.37Q553.15-23.74 552.64-20.35L552.64-20.35L549.31 0L536.06 1.28L542.59-32.64L553.15-33.92L552-27.46L552-27.46Q555.14-33.92 562.18-33.92L562.18-33.92L562.18-33.92Q565.89-33.92 567.90-32L567.90-32L567.90-32Q569.92-30.08 569.92-26.14L569.92-26.14L569.92-26.14Q569.92-22.21 567.33-19.71L567.33-19.71L567.33-19.71Q564.74-17.22 560.32-17.22L560.32-17.22L560.32-17.22Q558.40-17.22 557.63-17.98ZM594.18-31.55L594.18-31.55L594.18-31.55Q596.29-33.92 599.94-33.92L599.94-33.92L599.94-33.92Q602.18-33.92 603.90-32.70L603.90-32.70L603.90-32.70Q605.63-31.49 605.63-29.22L605.63-29.22L605.63-29.22Q605.63-26.94 604.93-24.51L604.93-24.51L604.93-24.51Q604.22-22.08 603.14-19.58L603.14-19.58L603.14-19.58Q600.96-14.72 597.95-10.69L597.95-10.69L597.95-10.69Q593.73-4.86 589.66-1.79L589.66-1.79L589.66-1.79Q585.60 1.28 581.18 1.28L581.18 1.28L581.18 1.28Q577.60 1.28 575.42 0.45L575.42 0.45L575.42 0.45Q575.04-12.99 574.56-17.79L574.56-17.79L574.56-17.79Q574.08-22.59 573.70-25.22L573.70-25.22L573.70-25.22Q573.06-30.34 571.14-31.55L571.14-31.55L571.14-31.55Q572.61-32.83 574.05-33.38L574.05-33.38L574.05-33.38Q575.49-33.92 578.46-33.92L578.46-33.92L578.46-33.92Q581.44-33.92 583.55-31.58L583.55-31.58L583.55-31.58Q585.66-29.25 586.08-25.12L586.08-25.12L586.08-25.12Q586.50-20.99 586.50-16L586.50-16L586.50-16Q586.50-11.01 586.11-4.99L586.11-4.99L586.11-4.99Q588.10-6.40 590.21-10.69L590.21-10.69L590.21-10.69Q593.09-16.64 594.11-23.81L594.11-23.81L594.11-23.81Q594.43-25.98 594.43-28.29L594.43-28.29L594.43-28.29Q594.43-30.59 594.18-31.55ZM622.72-3.52L622.72-3.52L622.72-3.52Q620.74 1.28 614.40 1.28L614.40 1.28L614.40 1.28Q611.14 1.28 609.09-0.96L609.09-0.96L609.09-0.96Q607.36-2.94 607.36-4.93L607.36-4.93L607.36-4.93Q607.36-10.11 609.73-20.22L609.73-20.22L612.10-32.64L625.09-33.92L621.18-13.70L621.18-13.70Q620.10-8.96 620.10-7.30L620.10-7.30L620.10-7.30Q620.10-3.65 622.72-3.52ZM613.25-41.54L613.25-41.54L613.25-41.54Q613.25-44.03 615.33-45.38L615.33-45.38L615.33-45.38Q617.41-46.72 620.42-46.72L620.42-46.72L620.42-46.72Q623.42-46.72 625.25-45.38L625.25-45.38L625.25-45.38Q627.07-44.03 627.07-41.54L627.07-41.54L627.07-41.54Q627.07-39.04 625.06-37.76L625.06-37.76L625.06-37.76Q623.04-36.48 620.03-36.48L620.03-36.48L620.03-36.48Q617.02-36.48 615.14-37.76L615.14-37.76L615.14-37.76Q613.25-39.04 613.25-41.54ZM659.58-26.62L659.58-26.62L659.58-26.62Q659.58-23.94 657.34-22.27L657.34-22.27L657.34-22.27Q655.10-20.61 651.46-20.61L651.46-20.61L651.46-20.61Q649.92-20.61 649.02-21.06L649.02-21.06L649.02-21.06Q649.73-22.72 649.95-24.80L649.95-24.80L649.95-24.80Q650.18-26.88 650.18-27.46L650.18-27.46L650.18-27.46Q650.18-30.14 648.32-30.14L648.32-30.14L648.32-30.14Q647.04-30.14 645.60-28.54L645.60-28.54L645.60-28.54Q644.16-26.94 642.94-24.45L642.94-24.45L642.94-24.45Q640.26-18.69 640.26-12.86L640.26-12.86L640.26-12.86Q640.26-9.66 641.47-8.22L641.47-8.22L641.47-8.22Q642.69-6.78 645.38-6.78L645.38-6.78L645.38-6.78Q649.09-6.78 652.03-9.86L652.03-9.86L652.03-9.86Q652.86-10.82 653.31-11.90L653.31-11.90L653.31-11.90Q655.74-10.62 655.74-7.10L655.74-7.10L655.74-7.10Q655.74-3.52 651.78-1.15L651.78-1.15L651.78-1.15Q647.68 1.28 641.15 1.28L641.15 1.28L641.15 1.28Q628.16 1.28 628.16-12.48L628.16-12.48L628.16-12.48Q628.16-22.53 633.86-28.29L633.86-28.29L633.86-28.29Q639.36-33.92 649.47-33.92L649.47-33.92L649.47-33.92Q659.58-33.92 659.58-26.62ZM687.23-10.82L687.23-10.82L687.23-10.82Q688.83-9.73 688.83-7.33L688.83-7.33L688.83-7.33Q688.83-4.93 687.62-3.39L687.62-3.39L687.62-3.39Q686.40-1.86 684.42-0.83L684.42-0.83L684.42-0.83Q680.32 1.28 675.90 1.28L675.90 1.28L675.90 1.28Q671.49 1.28 668.90 0.32L668.90 0.32L668.90 0.32Q666.30-0.64 664.58-2.43L664.58-2.43L664.58-2.43Q661.18-5.82 661.18-12.03L661.18-12.03L661.18-12.03Q661.18-21.70 666.43-27.58L666.43-27.58L666.43-27.58Q672.06-33.92 681.86-33.92L681.86-33.92L681.86-33.92Q687.94-33.92 690.94-31.36L690.94-31.36L690.94-31.36Q693.18-29.44 693.18-26.30L693.18-26.30L693.18-26.30Q693.18-15.04 673.73-15.04L673.73-15.04L673.73-15.04Q673.47-13.38 673.47-11.97L673.47-11.97L673.47-11.97Q673.47-9.02 674.78-7.90L674.78-7.90L674.78-7.90Q676.10-6.78 678.53-6.78L678.53-6.78L678.53-6.78Q680.96-6.78 683.55-7.90L683.55-7.90L683.55-7.90Q686.14-9.02 687.23-10.82ZM674.18-17.79L674.18-17.79L674.18-17.79Q678.72-17.79 681.34-20.61L681.34-20.61L681.34-20.61Q683.97-23.30 683.97-27.58L683.97-27.58L683.97-27.58Q683.97-29.06 683.42-29.86L683.42-29.86L683.42-29.86Q682.88-30.66 681.79-30.66L681.79-30.66L681.79-30.66Q680.70-30.66 679.78-30.24L679.78-30.24L679.78-30.24Q678.85-29.82 677.89-28.42L677.89-28.42L677.89-28.42Q675.52-25.22 674.18-17.79Z" fill="none" stroke="#fff" stroke-width="2.1"></path></g></g></g><style>text {
  font-size: 64px;
  font-family: Arial Black;
  dominant-baseline: central;
  text-anchor: middle;
}</style></svg>